<svg width="224" height="40" viewBox="0 0 224 40" fill="none" xmlns="http://www.w3.org/2000/svg">
<g clip-path="url(#clip0_6746_649)">
<path d="M42.77 19H38.54L40.06 14.06C40.38 13.03 39.54 12 38.38 12C37.8 12 37.24 12.24 36.86 12.65L31 19H27V29H31H32H41.43C42.49 29 43.41 28.33 43.62 27.39L44.96 21.39C45.23 20.15 44.18 19 42.77 19ZM31 28H28V20H31V28ZM43.98 21.17L42.64 27.17C42.54 27.65 42.03 28 41.43 28H32V19.39L37.6 13.33C37.79 13.12 38.08 13 38.38 13C38.64 13 38.88 13.11 39.01 13.3C39.08 13.4 39.16 13.56 39.1 13.77L37.58 18.71L37.18 20H38.53H42.76C43.17 20 43.56 20.17 43.79 20.46C43.92 20.61 44.05 20.86 43.98 21.17Z" fill="white"/>
</g>
<path d="M74.4746 23.9268H79.1914V25H73.1553V15.0469H74.4746V23.9268ZM81.8643 25H80.5996V17.6035H81.8643V25ZM80.4971 15.6416C80.4971 15.4365 80.5586 15.2633 80.6816 15.1221C80.8092 14.9808 80.9961 14.9102 81.2422 14.9102C81.4883 14.9102 81.6751 14.9808 81.8027 15.1221C81.9303 15.2633 81.9941 15.4365 81.9941 15.6416C81.9941 15.8467 81.9303 16.0176 81.8027 16.1543C81.6751 16.291 81.4883 16.3594 81.2422 16.3594C80.9961 16.3594 80.8092 16.291 80.6816 16.1543C80.5586 16.0176 80.4971 15.8467 80.4971 15.6416ZM85.959 21.5752L85.166 22.4023V25H83.9014V14.5H85.166V20.8506L85.8428 20.0371L88.1465 17.6035H89.6846L86.8066 20.6934L90.0195 25H88.5361L85.959 21.5752ZM93.9229 25.1367C92.9202 25.1367 92.1045 24.8086 91.4756 24.1523C90.8467 23.4915 90.5322 22.6097 90.5322 21.5068V21.2744C90.5322 20.5407 90.6712 19.8867 90.9492 19.3125C91.2318 18.7337 91.6237 18.2826 92.125 17.959C92.6309 17.6309 93.1777 17.4668 93.7656 17.4668C94.7272 17.4668 95.4746 17.7835 96.0078 18.417C96.541 19.0505 96.8076 19.9574 96.8076 21.1377V21.6641H91.7969C91.8151 22.3932 92.027 22.9834 92.4326 23.4346C92.8428 23.8812 93.3623 24.1045 93.9912 24.1045C94.4378 24.1045 94.8161 24.0133 95.126 23.8311C95.4359 23.6488 95.707 23.4072 95.9395 23.1064L96.7119 23.708C96.0921 24.6605 95.1624 25.1367 93.9229 25.1367ZM93.7656 18.5059C93.2552 18.5059 92.8268 18.6927 92.4805 19.0664C92.1341 19.4355 91.9199 19.9551 91.8379 20.625H95.543V20.5293C95.5065 19.8867 95.3333 19.39 95.0234 19.0391C94.7135 18.6836 94.2943 18.5059 93.7656 18.5059ZM97.9697 21.2402C97.9697 20.1055 98.2386 19.194 98.7764 18.5059C99.3141 17.8132 100.018 17.4668 100.889 17.4668C101.755 17.4668 102.44 17.763 102.946 18.3555V14.5H104.211V25H103.049L102.987 24.207C102.481 24.8268 101.777 25.1367 100.875 25.1367C100.018 25.1367 99.3187 24.7858 98.7764 24.084C98.2386 23.3822 97.9697 22.4661 97.9697 21.3359V21.2402ZM99.2344 21.3838C99.2344 22.2223 99.4076 22.8786 99.7539 23.3525C100.1 23.8265 100.579 24.0635 101.189 24.0635C101.992 24.0635 102.577 23.7035 102.946 22.9834V19.5859C102.568 18.8887 101.987 18.54 101.203 18.54C100.583 18.54 100.1 18.7793 99.7539 19.2578C99.4076 19.7363 99.2344 20.445 99.2344 21.3838ZM113.146 23.2568L115.989 15.0469H117.425L113.733 25H112.571L108.887 15.0469H110.315L113.146 23.2568ZM119.94 25H118.676V17.6035H119.94V25ZM118.573 15.6416C118.573 15.4365 118.635 15.2633 118.758 15.1221C118.885 14.9808 119.072 14.9102 119.318 14.9102C119.564 14.9102 119.751 14.9808 119.879 15.1221C120.007 15.2633 120.07 15.4365 120.07 15.6416C120.07 15.8467 120.007 16.0176 119.879 16.1543C119.751 16.291 119.564 16.3594 119.318 16.3594C119.072 16.3594 118.885 16.291 118.758 16.1543C118.635 16.0176 118.573 15.8467 118.573 15.6416ZM121.663 21.2402C121.663 20.1055 121.932 19.194 122.47 18.5059C123.007 17.8132 123.712 17.4668 124.582 17.4668C125.448 17.4668 126.134 17.763 126.64 18.3555V14.5H127.904V25H126.742L126.681 24.207C126.175 24.8268 125.471 25.1367 124.568 25.1367C123.712 25.1367 123.012 24.7858 122.47 24.084C121.932 23.3822 121.663 22.4661 121.663 21.3359V21.2402ZM122.928 21.3838C122.928 22.2223 123.101 22.8786 123.447 23.3525C123.794 23.8265 124.272 24.0635 124.883 24.0635C125.685 24.0635 126.271 23.7035 126.64 22.9834V19.5859C126.261 18.8887 125.68 18.54 124.896 18.54C124.277 18.54 123.794 18.7793 123.447 19.2578C123.101 19.7363 122.928 20.445 122.928 21.3838ZM132.942 25.1367C131.94 25.1367 131.124 24.8086 130.495 24.1523C129.866 23.4915 129.552 22.6097 129.552 21.5068V21.2744C129.552 20.5407 129.691 19.8867 129.969 19.3125C130.251 18.7337 130.643 18.2826 131.145 17.959C131.65 17.6309 132.197 17.4668 132.785 17.4668C133.747 17.4668 134.494 17.7835 135.027 18.417C135.561 19.0505 135.827 19.9574 135.827 21.1377V21.6641H130.816C130.835 22.3932 131.047 22.9834 131.452 23.4346C131.862 23.8812 132.382 24.1045 133.011 24.1045C133.457 24.1045 133.836 24.0133 134.146 23.8311C134.455 23.6488 134.727 23.4072 134.959 23.1064L135.731 23.708C135.112 24.6605 134.182 25.1367 132.942 25.1367ZM132.785 18.5059C132.275 18.5059 131.846 18.6927 131.5 19.0664C131.154 19.4355 130.939 19.9551 130.857 20.625H134.562V20.5293C134.526 19.8867 134.353 19.39 134.043 19.0391C133.733 18.6836 133.314 18.5059 132.785 18.5059ZM136.962 21.2334C136.962 20.5088 137.103 19.8571 137.386 19.2783C137.673 18.6995 138.069 18.2529 138.575 17.9385C139.086 17.624 139.667 17.4668 140.318 17.4668C141.326 17.4668 142.139 17.8154 142.759 18.5127C143.383 19.21 143.695 20.1374 143.695 21.2949V21.3838C143.695 22.1038 143.556 22.751 143.278 23.3252C143.005 23.8949 142.611 24.3392 142.096 24.6582C141.585 24.9772 140.997 25.1367 140.332 25.1367C139.329 25.1367 138.516 24.7881 137.892 24.0908C137.272 23.3936 136.962 22.4707 136.962 21.3223V21.2334ZM138.233 21.3838C138.233 22.2041 138.423 22.8626 138.801 23.3594C139.184 23.8561 139.694 24.1045 140.332 24.1045C140.975 24.1045 141.485 23.8538 141.863 23.3525C142.242 22.8467 142.431 22.1403 142.431 21.2334C142.431 20.4222 142.237 19.766 141.85 19.2646C141.467 18.7588 140.956 18.5059 140.318 18.5059C139.694 18.5059 139.19 18.7542 138.808 19.251C138.425 19.7477 138.233 20.4587 138.233 21.3838ZM149.588 23.0381C149.588 22.6963 149.458 22.432 149.198 22.2451C148.943 22.0537 148.494 21.8896 147.852 21.7529C147.214 21.6162 146.705 21.4521 146.327 21.2607C145.953 21.0693 145.675 20.8415 145.493 20.5771C145.315 20.3128 145.227 19.9984 145.227 19.6338C145.227 19.0277 145.482 18.515 145.992 18.0957C146.507 17.6764 147.163 17.4668 147.961 17.4668C148.799 17.4668 149.479 17.6833 149.998 18.1162C150.522 18.5492 150.784 19.1029 150.784 19.7773H149.513C149.513 19.431 149.365 19.1325 149.068 18.8818C148.777 18.6312 148.408 18.5059 147.961 18.5059C147.501 18.5059 147.141 18.6061 146.881 18.8066C146.621 19.0072 146.491 19.2692 146.491 19.5928C146.491 19.8981 146.612 20.1283 146.854 20.2832C147.095 20.4382 147.53 20.5863 148.159 20.7275C148.793 20.8688 149.305 21.0374 149.697 21.2334C150.089 21.4294 150.379 21.6663 150.565 21.9443C150.757 22.2178 150.853 22.5527 150.853 22.9492C150.853 23.61 150.588 24.141 150.06 24.542C149.531 24.9385 148.845 25.1367 148.002 25.1367C147.41 25.1367 146.885 25.0319 146.43 24.8223C145.974 24.6126 145.616 24.321 145.356 23.9473C145.101 23.569 144.974 23.1611 144.974 22.7236H146.238C146.261 23.1475 146.43 23.4847 146.744 23.7354C147.063 23.9814 147.482 24.1045 148.002 24.1045C148.48 24.1045 148.863 24.0088 149.15 23.8174C149.442 23.6214 149.588 23.3617 149.588 23.0381Z" fill="white"/>
<defs>
<clipPath id="clip0_6746_649">
<rect width="24" height="24" fill="white" transform="translate(24 8)"/>
</clipPath>
</defs>
</svg>
