<svg width="224" height="40" viewBox="0 0 224 40" fill="none" xmlns="http://www.w3.org/2000/svg">
<g clip-path="url(#clip0_6746_633)">
<path d="M34 16L40 20L34 24V16ZM45 11V29H27V11H45ZM44 12H28V28H44V12Z" fill="white"/>
</g>
<path d="M76.1904 20.0439L78.7881 15.0469H80.2783L76.8467 21.2881V25H75.5342V21.2881L72.1025 15.0469H73.6064L76.1904 20.0439ZM80.5791 21.2334C80.5791 20.5088 80.7204 19.8571 81.0029 19.2783C81.29 18.6995 81.6865 18.2529 82.1924 17.9385C82.7028 17.624 83.2839 17.4668 83.9355 17.4668C84.9427 17.4668 85.7562 17.8154 86.376 18.5127C87.0003 19.21 87.3125 20.1374 87.3125 21.2949V21.3838C87.3125 22.1038 87.1735 22.751 86.8955 23.3252C86.6221 23.8949 86.2279 24.3392 85.7129 24.6582C85.2025 24.9772 84.6146 25.1367 83.9492 25.1367C82.9466 25.1367 82.1331 24.7881 81.5088 24.0908C80.889 23.3936 80.5791 22.4707 80.5791 21.3223V21.2334ZM81.8506 21.3838C81.8506 22.2041 82.0397 22.8626 82.418 23.3594C82.8008 23.8561 83.3112 24.1045 83.9492 24.1045C84.5918 24.1045 85.1022 23.8538 85.4805 23.3525C85.8587 22.8467 86.0479 22.1403 86.0479 21.2334C86.0479 20.4222 85.8542 19.766 85.4668 19.2646C85.084 18.7588 84.5736 18.5059 83.9355 18.5059C83.3112 18.5059 82.8076 18.7542 82.4248 19.251C82.042 19.7477 81.8506 20.4587 81.8506 21.3838ZM93.4648 24.2686C92.9727 24.8473 92.2503 25.1367 91.2979 25.1367C90.5094 25.1367 89.9079 24.9089 89.4932 24.4531C89.083 23.9928 88.8757 23.3138 88.8711 22.416V17.6035H90.1357V22.3818C90.1357 23.5029 90.5915 24.0635 91.5029 24.0635C92.4691 24.0635 93.1117 23.7035 93.4307 22.9834V17.6035H94.6953V25H93.4922L93.4648 24.2686ZM100.198 18.7383C100.007 18.7064 99.7995 18.6904 99.5762 18.6904C98.7467 18.6904 98.1839 19.0436 97.8877 19.75V25H96.623V17.6035H97.8535L97.874 18.458C98.2887 17.7972 98.8766 17.4668 99.6377 17.4668C99.8838 17.4668 100.071 17.4987 100.198 17.5625V18.7383ZM108.333 23.2568L111.177 15.0469H112.612L108.921 25H107.759L104.074 15.0469H105.503L108.333 23.2568ZM115.128 25H113.863V17.6035H115.128V25ZM113.761 15.6416C113.761 15.4365 113.822 15.2633 113.945 15.1221C114.073 14.9808 114.26 14.9102 114.506 14.9102C114.752 14.9102 114.939 14.9808 115.066 15.1221C115.194 15.2633 115.258 15.4365 115.258 15.6416C115.258 15.8467 115.194 16.0176 115.066 16.1543C114.939 16.291 114.752 16.3594 114.506 16.3594C114.26 16.3594 114.073 16.291 113.945 16.1543C113.822 16.0176 113.761 15.8467 113.761 15.6416ZM116.851 21.2402C116.851 20.1055 117.119 19.194 117.657 18.5059C118.195 17.8132 118.899 17.4668 119.77 17.4668C120.635 17.4668 121.321 17.763 121.827 18.3555V14.5H123.092V25H121.93L121.868 24.207C121.362 24.8268 120.658 25.1367 119.756 25.1367C118.899 25.1367 118.2 24.7858 117.657 24.084C117.119 23.3822 116.851 22.4661 116.851 21.3359V21.2402ZM118.115 21.3838C118.115 22.2223 118.288 22.8786 118.635 23.3525C118.981 23.8265 119.46 24.0635 120.07 24.0635C120.872 24.0635 121.458 23.7035 121.827 22.9834V19.5859C121.449 18.8887 120.868 18.54 120.084 18.54C119.464 18.54 118.981 18.7793 118.635 19.2578C118.288 19.7363 118.115 20.445 118.115 21.3838ZM128.13 25.1367C127.127 25.1367 126.312 24.8086 125.683 24.1523C125.054 23.4915 124.739 22.6097 124.739 21.5068V21.2744C124.739 20.5407 124.878 19.8867 125.156 19.3125C125.439 18.7337 125.831 18.2826 126.332 17.959C126.838 17.6309 127.385 17.4668 127.973 17.4668C128.934 17.4668 129.682 17.7835 130.215 18.417C130.748 19.0505 131.015 19.9574 131.015 21.1377V21.6641H126.004C126.022 22.3932 126.234 22.9834 126.64 23.4346C127.05 23.8812 127.569 24.1045 128.198 24.1045C128.645 24.1045 129.023 24.0133 129.333 23.8311C129.643 23.6488 129.914 23.4072 130.146 23.1064L130.919 23.708C130.299 24.6605 129.369 25.1367 128.13 25.1367ZM127.973 18.5059C127.462 18.5059 127.034 18.6927 126.688 19.0664C126.341 19.4355 126.127 19.9551 126.045 20.625H129.75V20.5293C129.714 19.8867 129.54 19.39 129.23 19.0391C128.921 18.6836 128.501 18.5059 127.973 18.5059ZM132.149 21.2334C132.149 20.5088 132.291 19.8571 132.573 19.2783C132.86 18.6995 133.257 18.2529 133.763 17.9385C134.273 17.624 134.854 17.4668 135.506 17.4668C136.513 17.4668 137.326 17.8154 137.946 18.5127C138.571 19.21 138.883 20.1374 138.883 21.2949V21.3838C138.883 22.1038 138.744 22.751 138.466 23.3252C138.192 23.8949 137.798 24.3392 137.283 24.6582C136.773 24.9772 136.185 25.1367 135.52 25.1367C134.517 25.1367 133.703 24.7881 133.079 24.0908C132.459 23.3936 132.149 22.4707 132.149 21.3223V21.2334ZM133.421 21.3838C133.421 22.2041 133.61 22.8626 133.988 23.3594C134.371 23.8561 134.882 24.1045 135.52 24.1045C136.162 24.1045 136.673 23.8538 137.051 23.3525C137.429 22.8467 137.618 22.1403 137.618 21.2334C137.618 20.4222 137.424 19.766 137.037 19.2646C136.654 18.7588 136.144 18.5059 135.506 18.5059C134.882 18.5059 134.378 18.7542 133.995 19.251C133.612 19.7477 133.421 20.4587 133.421 21.3838ZM144.775 23.0381C144.775 22.6963 144.646 22.432 144.386 22.2451C144.131 22.0537 143.682 21.8896 143.039 21.7529C142.401 21.6162 141.893 21.4521 141.515 21.2607C141.141 21.0693 140.863 20.8415 140.681 20.5771C140.503 20.3128 140.414 19.9984 140.414 19.6338C140.414 19.0277 140.669 18.515 141.18 18.0957C141.695 17.6764 142.351 17.4668 143.148 17.4668C143.987 17.4668 144.666 17.6833 145.186 18.1162C145.71 18.5492 145.972 19.1029 145.972 19.7773H144.7C144.7 19.431 144.552 19.1325 144.256 18.8818C143.964 18.6312 143.595 18.5059 143.148 18.5059C142.688 18.5059 142.328 18.6061 142.068 18.8066C141.809 19.0072 141.679 19.2692 141.679 19.5928C141.679 19.8981 141.799 20.1283 142.041 20.2832C142.283 20.4382 142.718 20.5863 143.347 20.7275C143.98 20.8688 144.493 21.0374 144.885 21.2334C145.277 21.4294 145.566 21.6663 145.753 21.9443C145.944 22.2178 146.04 22.5527 146.04 22.9492C146.04 23.61 145.776 24.141 145.247 24.542C144.718 24.9385 144.033 25.1367 143.189 25.1367C142.597 25.1367 142.073 25.0319 141.617 24.8223C141.161 24.6126 140.804 24.321 140.544 23.9473C140.289 23.569 140.161 23.1611 140.161 22.7236H141.426C141.449 23.1475 141.617 23.4847 141.932 23.7354C142.251 23.9814 142.67 24.1045 143.189 24.1045C143.668 24.1045 144.051 24.0088 144.338 23.8174C144.63 23.6214 144.775 23.3617 144.775 23.0381Z" fill="white"/>
<defs>
<clipPath id="clip0_6746_633">
<rect width="24" height="24" fill="white" transform="translate(24 8)"/>
</clipPath>
</defs>
</svg>
