<svg width="16" height="16" viewBox="0 0 16 16" fill="none" xmlns="http://www.w3.org/2000/svg">
<path d="M11.3335 2.66669H10.6669H4.38021C3.66687 2.66669 3.06021 3.11335 2.92021 3.74002L2.02687 7.74002C1.84687 8.56669 2.54687 9.33335 3.48687 9.33335H6.30688L5.29354 12.6267C5.08021 13.3134 5.64021 14 6.41354 14C6.80021 14 7.17354 13.84 7.42688 13.5667L11.3335 9.33335H14.0002V2.66669H11.3335ZM6.93354 13.1134C6.80687 13.2534 6.61354 13.3334 6.41354 13.3334C6.24021 13.3334 6.08021 13.26 5.99354 13.1334C5.94687 13.0667 5.89354 12.96 5.93354 12.82L6.94688 9.52669L7.21354 8.66669H6.30688H3.48687C3.21354 8.66669 2.95354 8.55335 2.80021 8.36002C2.72021 8.26002 2.63354 8.09335 2.68021 7.88002L3.57354 3.88002C3.64021 3.56669 3.98021 3.33335 4.38021 3.33335H10.6669V9.07335L6.93354 13.1134ZM13.3335 8.66669H11.3335V3.33335H13.3335V8.66669Z" fill="white"/>
</svg>
