<svg width="98" height="20" viewBox="0 0 98 20" fill="none" xmlns="http://www.w3.org/2000/svg">
<g id="Group">
<g id="Group_2">
<path id="Vector" d="M28.4 3.12C28.06 1.88 27.09 0.92 25.85 0.6C23.62 -1.19209e-07 14.68 0 14.68 0C14.68 0 5.75 -1.19209e-07 3.52 0.6C2.29 0.93 1.33 1.89 1 3.12C0.59 5.39 0.39 7.69 0.4 10C0.39 12.31 0.59 14.61 1 16.88C1.33 18.11 2.29 19.07 3.52 19.4C5.75 20 14.68 20 14.68 20C14.68 20 23.61 20 25.84 19.4C27.08 19.08 28.06 18.12 28.4 16.88C28.81 14.61 29.01 12.31 29 10C29.01 7.69 28.81 5.39 28.4 3.12Z" fill="#FF0000"/>
<path id="Vector_2" d="M11.83 14.29L19.25 10L11.83 5.71002V14.29Z" fill="white"/>
</g>
<g id="youtube red paths">
<path id="Vector_3" d="M41.67 6.35004V7.00004C41.67 10.45 40.14 12.48 36.79 12.48H36.28V18.48H33.54V1.42004H37.03C40.22 1.42004 41.67 2.77004 41.67 6.35004ZM38.79 6.60004C38.79 4.11004 38.34 3.51004 36.79 3.51004H36.28V10.51H36.75C38.22 10.51 38.75 9.45004 38.75 7.14004L38.79 6.60004Z" fill="white"/>
<path id="Vector_4" d="M48.14 5.83002L48 9.08002C46.83 8.84002 45.87 9.00002 45.4 9.77002V18.55H42.73V6.00002H44.9L45.14 8.71002H45.24C45.52 6.71002 46.44 5.71002 47.63 5.71002C47.8 5.73002 47.98 5.77002 48.14 5.83002Z" fill="white"/>
<path id="Vector_5" d="M51.27 13.25V13.88C51.27 16.09 51.39 16.88 52.33 16.88C53.27 16.88 53.43 16.19 53.45 14.76L55.88 14.9C56.06 17.6 54.65 18.8 52.27 18.8C49.37 18.8 48.51 16.9 48.51 13.45V11.22C48.51 7.58 49.51 5.81 52.35 5.81C55.19 5.81 55.99 7.32 55.99 11.1V13.25H51.27ZM51.27 10.67V11.57H53.33V10.68C53.33 8.38 53.17 7.68 52.33 7.68C51.49 7.68 51.33 8.35 51.33 10.68L51.27 10.67Z" fill="white"/>
<path id="Vector_6" d="M70.02 9.10004V18.56H67.2V9.31004C67.2 8.31004 66.93 7.78004 66.32 7.78004C65.78 7.80004 65.3 8.12004 65.07 8.60004C65.08 8.77004 65.08 8.94004 65.07 9.11004V18.57H62.28V9.31004C62.28 8.31004 62.01 7.78004 61.4 7.78004C60.87 7.80004 60.4 8.11004 60.17 8.58004V18.58H57.4V6.00004H59.63L59.88 7.59004C60.39 6.47004 61.51 5.74004 62.74 5.73004C63.79 5.66004 64.72 6.40004 64.9 7.43004C65.45 6.42004 66.51 5.78004 67.66 5.77004C69.4 5.78004 70.02 7.00004 70.02 9.10004Z" fill="white"/>
<path id="Vector_7" d="M71.4 2.83003C71.4 1.48003 71.89 1.09003 72.93 1.09003C73.97 1.09003 74.46 1.54003 74.46 2.83003C74.46 4.12003 73.99 4.57003 72.93 4.57003C71.87 4.57003 71.4 4.22003 71.4 2.83003ZM71.59 6.00003H74.29V18.56H71.59V6.00003Z" fill="white"/>
<path id="Vector_8" d="M83.5 6V18.56H81.3L81.05 17H80.99C80.53 18.08 79.46 18.77 78.29 18.74C76.62 18.74 75.86 17.68 75.86 15.37V6H78.68V15.19C78.68 16.29 78.91 16.74 79.48 16.74C80 16.72 80.46 16.41 80.68 15.94V6H83.5Z" fill="white"/>
<path id="Vector_9" d="M97.8 9.10004V18.56H94.98V9.31004C94.98 8.31004 94.71 7.78004 94.1 7.78004C93.56 7.80004 93.08 8.12004 92.85 8.60004C92.86 8.77004 92.86 8.94004 92.85 9.11004V18.57H90.06V9.31004C90.06 8.31004 89.79 7.78004 89.18 7.78004C88.65 7.80004 88.18 8.11004 87.95 8.58004V18.58H85.14V6.00004H87.4L87.64 7.59004C88.15 6.47004 89.27 5.74004 90.5 5.73004C91.54 5.66004 92.47 6.37004 92.67 7.39004C93.22 6.40004 94.27 5.78004 95.4 5.77004C97.15 5.78004 97.8 7.00004 97.8 9.10004Z" fill="white"/>
</g>
</g>
</svg>
