<svg width="12" height="12" viewBox="0 0 12 12" fill="none" xmlns="http://www.w3.org/2000/svg">
<path d="M10.5133 5.33335H7.69333L8.70667 2.04002C8.92 1.35335 8.36 0.666687 7.58667 0.666687C7.2 0.666687 6.82667 0.826687 6.57333 1.10002L2.66667 5.33335H0V12H2.66667H3.33333H9.62C10.3267 12 10.94 11.5534 11.08 10.9267L11.9733 6.92669C12.1533 6.10002 11.4533 5.33335 10.5133 5.33335ZM2.66667 11.3334H0.666667V6.00002H2.66667V11.3334ZM11.32 6.78002L10.4267 10.78C10.36 11.1 10.02 11.3334 9.62 11.3334H3.33333V5.59335L7.06667 1.55335C7.19333 1.41335 7.38667 1.33335 7.58667 1.33335C7.76 1.33335 7.92 1.40669 8.00667 1.53335C8.05333 1.60002 8.10667 1.70669 8.06667 1.84669L7.05333 5.14002L6.78667 6.00002H7.68667H10.5067C10.78 6.00002 11.04 6.11335 11.1933 6.30669C11.28 6.40669 11.3667 6.57335 11.32 6.78002Z" fill="white"/>
</svg>
