<svg width="54" height="36" viewBox="0 0 54 36" fill="none" xmlns="http://www.w3.org/2000/svg">
<path d="M2 1.41H1.41V2V34V34.59H2H50C51.4304 34.59 52.59 33.4304 52.59 32V4C52.59 2.56958 51.4304 1.41 50 1.41H2Z" fill="#424242"/>
<path d="M29.9167 19.6667H29.2583L29.025 19.4417C29.8417 18.4917 30.3333 17.2583 30.3333 15.9167C30.3333 12.925 27.9083 10.5 24.9167 10.5C21.925 10.5 19.5 12.925 19.5 15.9167C19.5 18.9083 21.925 21.3333 24.9167 21.3333C26.2583 21.3333 27.4917 20.8417 28.4417 20.025L28.6667 20.2583V20.9167L32.8333 25.075L34.075 23.8333L29.9167 19.6667ZM24.9167 19.6667C22.8417 19.6667 21.1667 17.9917 21.1667 15.9167C21.1667 13.8417 22.8417 12.1667 24.9167 12.1667C26.9917 12.1667 28.6667 13.8417 28.6667 15.9167C28.6667 17.9917 26.9917 19.6667 24.9167 19.6667Z" fill="#909090"/>
<path d="M2 1.41H1.41V2V34V34.59H2H50C51.4304 34.59 52.59 33.4304 52.59 32V4C52.59 2.56958 51.4304 1.41 50 1.41H2Z" stroke="#424242" stroke-width="1.18"/>
</svg>
